<svg id="visual" viewBox="0 0 900 50" width="900" height="50" xmlns="http://www.w3.org/2000/svg" xmlns:xlink="http://www.w3.org/1999/xlink" version="1.1"><rect x="0" y="0" width="900" height="50" fill="#CD113B"></rect><path d="M0 36L30 37.8C60 39.7 120 43.3 180 45C240 46.7 300 46.3 360 44.8C420 43.3 480 40.7 540 39.7C600 38.7 660 39.3 720 40.8C780 42.3 840 44.7 870 45.8L900 47L900 51L870 51C840 51 780 51 720 51C660 51 600 51 540 51C480 51 420 51 360 51C300 51 240 51 180 51C120 51 60 51 30 51L0 51Z" fill="#52006A" stroke-linecap="round" stroke-linejoin="miter"></path></svg>