<?xml version="1.0" encoding="utf-8"?>
<svg viewBox="0 212.187 900 238.813" xmlns="http://www.w3.org/2000/svg">
  <path d="M0 243L18.8 238.2C37.7 233.3 75.3 223.7 112.8 218.5C150.3 213.3 187.7 212.7 225.2 212.3C262.7 212 300.3 212 337.8 216.2C375.3 220.3 412.7 228.7 450.2 234.5C487.7 240.3 525.3 243.7 562.8 243.5C600.3 243.3 637.7 239.7 675.2 238.5C712.7 237.3 750.3 238.7 787.8 240.2C825.3 241.7 862.7 243.3 881.3 244.2L900 245L900 451L881.3 451C862.7 451 825.3 451 787.8 451C750.3 451 712.7 451 675.2 451C637.7 451 600.3 451 562.8 451C525.3 451 487.7 451 450.2 451C412.7 451 375.3 451 337.8 451C300.3 451 262.7 451 225.2 451C187.7 451 150.3 451 112.8 451C75.3 451 37.7 451 18.8 451L0 451Z" fill="#52006a"/>
  <path d="M0 281L18.8 277.7C37.7 274.3 75.3 267.7 112.8 263C150.3 258.3 187.7 255.7 225.2 255C262.7 254.3 300.3 255.7 337.8 259.7C375.3 263.7 412.7 270.3 450.2 267.7C487.7 265 525.3 253 562.8 249.5C600.3 246 637.7 251 675.2 255.7C712.7 260.3 750.3 264.7 787.8 265.5C825.3 266.3 862.7 263.7 881.3 262.3L900 261L900 451L881.3 451C862.7 451 825.3 451 787.8 451C750.3 451 712.7 451 675.2 451C637.7 451 600.3 451 562.8 451C525.3 451 487.7 451 450.2 451C412.7 451 375.3 451 337.8 451C300.3 451 262.7 451 225.2 451C187.7 451 150.3 451 112.8 451C75.3 451 37.7 451 18.8 451L0 451Z" fill="#750066"/>
  <path d="M0 309L18.8 309.3C37.7 309.7 75.3 310.3 112.8 309.5C150.3 308.7 187.7 306.3 225.2 303.7C262.7 301 300.3 298 337.8 296.5C375.3 295 412.7 295 450.2 299.2C487.7 303.3 525.3 311.7 562.8 314.5C600.3 317.3 637.7 314.7 675.2 308.2C712.7 301.7 750.3 291.3 787.8 289.3C825.3 287.3 862.7 293.7 881.3 296.8L900 300L900 451L881.3 451C862.7 451 825.3 451 787.8 451C750.3 451 712.7 451 675.2 451C637.7 451 600.3 451 562.8 451C525.3 451 487.7 451 450.2 451C412.7 451 375.3 451 337.8 451C300.3 451 262.7 451 225.2 451C187.7 451 150.3 451 112.8 451C75.3 451 37.7 451 18.8 451L0 451Z" fill="#91005f"/>
  <path d="M0 326L18.8 327.8C37.7 329.7 75.3 333.3 112.8 333.7C150.3 334 187.7 331 225.2 333C262.7 335 300.3 342 337.8 341.3C375.3 340.7 412.7 332.3 450.2 333.7C487.7 335 525.3 346 562.8 348C600.3 350 637.7 343 675.2 342.8C712.7 342.7 750.3 349.3 787.8 348.8C825.3 348.3 862.7 340.7 881.3 336.8L900 333L900 451L881.3 451C862.7 451 825.3 451 787.8 451C750.3 451 712.7 451 675.2 451C637.7 451 600.3 451 562.8 451C525.3 451 487.7 451 450.2 451C412.7 451 375.3 451 337.8 451C300.3 451 262.7 451 225.2 451C187.7 451 150.3 451 112.8 451C75.3 451 37.7 451 18.8 451L0 451Z" fill="#a80056"/>
  <path d="M0 370L18.8 373.8C37.7 377.7 75.3 385.3 112.8 388.8C150.3 392.3 187.7 391.7 225.2 386.8C262.7 382 300.3 373 337.8 370C375.3 367 412.7 370 450.2 374.3C487.7 378.7 525.3 384.3 562.8 384.3C600.3 384.3 637.7 378.7 675.2 377.8C712.7 377 750.3 381 787.8 382.2C825.3 383.3 862.7 381.7 881.3 380.8L900 380L900 451L881.3 451C862.7 451 825.3 451 787.8 451C750.3 451 712.7 451 675.2 451C637.7 451 600.3 451 562.8 451C525.3 451 487.7 451 450.2 451C412.7 451 375.3 451 337.8 451C300.3 451 262.7 451 225.2 451C187.7 451 150.3 451 112.8 451C75.3 451 37.7 451 18.8 451L0 451Z" fill="#bd004a"/>
  <path d="M0 407L18.8 405.5C37.7 404 75.3 401 112.8 399C150.3 397 187.7 396 225.2 398.3C262.7 400.7 300.3 406.3 337.8 410.7C375.3 415 412.7 418 450.2 416.3C487.7 414.7 525.3 408.3 562.8 408.7C600.3 409 637.7 416 675.2 417.3C712.7 418.7 750.3 414.3 787.8 411.3C825.3 408.3 862.7 406.7 881.3 405.8L900 405L900 451L881.3 451C862.7 451 825.3 451 787.8 451C750.3 451 712.7 451 675.2 451C637.7 451 600.3 451 562.8 451C525.3 451 487.7 451 450.2 451C412.7 451 375.3 451 337.8 451C300.3 451 262.7 451 225.2 451C187.7 451 150.3 451 112.8 451C75.3 451 37.7 451 18.8 451L0 451Z" fill="#cd113b"/>
</svg>